HIERARCHY
ROOT Hips
{
	OFFSET 0.000000 0.000000 0.000000
	CHANNELS 6 Xposition Yposition Zposition Zrotation Yrotation Xrotation 
	JOINT LowerBack
	{
		OFFSET 0.000000 0.000000 0.000000
		CHANNELS 3 Zrotation Yrotation Xrotation
		JOINT Spine
		{
			OFFSET 0.028270 2.035590 -0.193380
			CHANNELS 3 Zrotation Yrotation Xrotation
			JOINT Spine1
			{
				OFFSET 0.056720 2.048850 -0.042750
				CHANNELS 3 Zrotation Yrotation Xrotation
				JOINT Neck
				{
					OFFSET 0.000000 0.000000 0.000000
					CHANNELS 3 Zrotation Yrotation Xrotation
					JOINT Neck1
					{
						OFFSET -0.054170 1.746240 0.172020
						CHANNELS 3 Zrotation Yrotation Xrotation
						JOINT Head
						{
							OFFSET 0.104070 1.761360 -0.123970
							CHANNELS 3 Zrotation Yrotation Xrotation
							End Site
							{
								OFFSET 0.000000 0.000000 0.000000
							}
						}
					}
				}
				JOINT LeftShoulder
				{
					OFFSET 0.000000 0.000000 0.000000
					CHANNELS 3 Zrotation Yrotation Xrotation
					JOINT LeftArm
					{
						OFFSET 3.362410 1.200890 -0.311210
						CHANNELS 3 Zrotation Yrotation Xrotation
						JOINT LeftForeArm
						{
							OFFSET 4.983000 -0.000000 -0.000000
							CHANNELS 3 Zrotation Yrotation Xrotation
							JOINT LeftHand
							{
								OFFSET 3.483560 -0.000000 -0.000000
								CHANNELS 3 Zrotation Yrotation Xrotation
								JOINT LeftFingerBase
								{
									OFFSET 0.000000 0.000000 0.000000
									CHANNELS 3 Zrotation Yrotation Xrotation
									JOINT LeftHandIndex1
									{
										OFFSET 0.715260 -0.000000 -0.000000
										CHANNELS 3 Zrotation Yrotation Xrotation
										End Site
										{
											OFFSET 0.000000 0.000000 0.000000
										}
									}
								}
								JOINT LThumb
								{
									OFFSET 0.000000 0.000000 0.000000
									CHANNELS 3 Zrotation Yrotation Xrotation
									End Site
									{
										OFFSET 0.000000 0.000000 0.000000
									}
								}
							}
						}
					}
				}
				JOINT RightShoulder
				{
					OFFSET 0.000000 0.000000 0.000000
					CHANNELS 3 Zrotation Yrotation Xrotation
					JOINT RightArm
					{
						OFFSET -3.136600 1.374050 -0.404650
						CHANNELS 3 Zrotation Yrotation Xrotation
						JOINT RightForeArm
						{
							OFFSET -5.241900 -0.000000 -0.000000
							CHANNELS 3 Zrotation Yrotation Xrotation
							JOINT RightHand
							{
								OFFSET -3.444170 -0.000000 -0.000000
								CHANNELS 3 Zrotation Yrotation Xrotation
								JOINT RightFingerBase
								{
									OFFSET 0.000000 0.000000 0.000000
									CHANNELS 3 Zrotation Yrotation Xrotation
									JOINT RightHandIndex1
									{
										OFFSET -0.622530 -0.000000 -0.000000
										CHANNELS 3 Zrotation Yrotation Xrotation
										End Site
										{
											OFFSET 0.000000 0.000000 0.000000
										}
									}
								}
								JOINT RThumb
								{
									OFFSET 0.000000 0.000000 0.000000
									CHANNELS 3 Zrotation Yrotation Xrotation
									End Site
									{
										OFFSET 0.000000 0.000000 0.000000
									}
								}
							}
						}
					}
				}
			}
		}
	}
}
}
MOTION
Frames: 15
Frame Time: 0.008333
-19.509986 16.015252 -0.212366 1.317132 80.524966 27.830592 -10.153120 0.866750 0.863431 -2.687584 1.372808 -2.528692 -4.596383 1.296387 1.594532 5.898281 -2.711719 -6.295367 -2.226074 -0.174316 0.127987 0.000000 0.000000 0.000000 -6.972919 12.819553 2.464662 -40.744436 16.209202 10.222979 -5.616296 -19.730578 -0.028937 -10.385922 2.713223 -0.250878 -0.214036 -0.103541 -0.000000 0.000000 0.000000 0.000000 0.000000 0.000000 0.000000 7.449403 1.224732 2.326605 32.089686 33.674202 21.093712 0.828710 73.069097 0.032684 8.689671 11.322001 0.903885 -0.115803 -0.373372 0.000000 0.000000 0.000000 0.000000 0.000000 0.000000 0.000000 
-19.281048 16.048171 -0.229945 1.522646 80.396066 27.830907 -10.433218 0.838367 1.021121 -2.743629 1.356687 -2.504240 -4.600578 1.281704 1.582454 5.989944 -2.746020 -6.283670 -2.240772 -0.175303 0.127471 0.000000 0.000000 0.000000 -7.173114 12.615961 2.473527 -41.343812 15.766864 10.084122 -5.608471 -19.535889 -0.028966 -10.416302 2.862425 -0.264783 -0.212153 -0.100796 -0.000000 0.000000 0.000000 0.000000 0.000000 0.000000 0.000000 7.582971 1.162265 2.348787 32.153431 32.913417 21.696993 0.817818 73.552084 0.033030 8.827866 11.336470 0.919170 -0.116469 -0.371146 0.000000 0.000000 0.000000 0.000000 0.000000 0.000000 0.000000 
-19.054030 16.084454 -0.249325 1.919093 80.342179 27.987221 -10.656922 0.784954 1.204988 -2.784866 1.312871 -2.471705 -4.601388 1.239853 1.576773 6.057435 -2.793415 -6.260353 -2.256318 -0.176488 0.130522 0.000000 0.000000 0.000000 -7.364655 12.381377 2.485780 -41.982578 15.282282 10.140983 -5.589522 -19.491091 -0.028989 -10.460624 2.996971 -0.277885 -0.209511 -0.098514 -0.000000 0.000000 0.000000 0.000000 0.000000 0.000000 0.000000 7.703329 1.064830 2.362655 32.245422 32.178378 22.364650 0.809026 73.921359 0.033082 8.932027 11.364398 0.931856 -0.116598 -0.367946 0.000000 0.000000 0.000000 0.000000 0.000000 0.000000 0.000000 
-18.828596 16.124095 -0.271238 2.366173 80.364709 28.174926 -10.794894 0.708642 1.400240 -2.805374 1.242560 -2.433555 -4.599993 1.171886 1.579513 6.097098 -2.857000 -6.229540 -2.271344 -0.177730 0.136486 0.000000 0.000000 0.000000 -7.563094 12.138038 2.500371 -42.647427 14.741836 10.385760 -5.559817 -19.612154 -0.029024 -10.527515 3.120212 -0.290782 -0.206234 -0.096643 -0.000000 0.000000 0.000000 0.000000 0.000000 0.000000 0.000000 7.797143 0.931672 2.365055 32.386392 31.469897 23.072239 0.803473 74.162345 0.032861 9.009193 11.411018 0.943243 -0.116243 -0.363744 0.000000 0.000000 0.000000 0.000000 0.000000 0.000000 0.000000 
-18.604759 16.167342 -0.294817 2.994013 80.470440 28.528367 -10.869829 0.606395 1.602979 -2.810482 1.144027 -2.390440 -4.597456 1.076025 1.590229 6.122661 -2.943516 -6.192996 -2.285836 -0.178999 0.144737 0.000000 0.000000 0.000000 -7.750772 11.879461 2.517836 -43.335437 14.146559 10.794843 -5.519370 -19.897382 -0.029000 -10.608137 3.223463 -0.302473 -0.202281 -0.095071 -0.000000 0.000000 0.000000 0.000000 0.000000 0.000000 0.000000 7.880012 0.755660 2.356950 32.579972 30.786498 23.799806 0.802060 74.270462 0.032391 9.052956 11.464734 0.951534 -0.115217 -0.358528 0.000000 0.000000 0.000000 0.000000 0.000000 0.000000 0.000000 
-18.382550 16.214546 -0.319808 3.789167 80.653519 29.044225 -10.884120 0.480602 1.805024 -2.801614 1.019980 -2.342978 -4.595220 0.954975 1.612673 6.143927 -3.062781 -6.158628 -2.299646 -0.180170 0.153050 0.000000 0.000000 0.000000 -7.919759 11.629217 2.537710 -44.044227 13.458355 11.341606 -5.468729 -20.323209 -0.028835 -10.697325 3.299591 -0.312059 -0.197684 -0.093534 -0.000000 0.000000 0.000000 0.000000 0.000000 0.000000 0.000000 7.962282 0.529031 2.337596 32.828536 30.136179 24.523304 0.805489 74.238565 0.031705 9.059017 11.520994 0.956028 -0.113415 -0.352347 0.000000 0.000000 0.000000 0.000000 0.000000 0.000000 0.000000 
-18.161526 16.266094 -0.346482 4.615752 80.898013 29.602408 -10.819692 0.339703 1.991124 -2.776055 0.878171 -2.297552 -4.596608 0.816039 1.636754 6.159008 -3.199077 -6.121634 -2.312052 -0.181292 0.163178 0.000000 0.000000 0.000000 -8.096032 11.365536 2.559610 -44.740690 12.728947 11.997047 -5.408987 -20.924821 -0.028585 -10.800605 3.352800 -0.320039 -0.192670 -0.092126 -0.000000 0.000000 0.000000 0.000000 0.000000 0.000000 0.000000 8.028356 0.277341 2.308832 33.167792 29.472363 25.203370 0.815330 74.072516 0.030935 9.054449 11.577868 0.959327 -0.111052 -0.345239 0.000000 0.000000 0.000000 0.000000 0.000000 0.000000 0.000000 
-17.941578 16.322412 -0.374209 5.490144 81.188923 30.225570 -10.692065 0.188192 2.155893 -2.738207 0.723722 -2.255664 -4.603735 0.664253 1.661500 6.179811 -3.354745 -6.085698 -2.323714 -0.182362 0.173917 0.000000 0.000000 0.000000 -8.268920 11.090155 2.583591 -45.420919 11.948909 12.722393 -5.341158 -21.678646 -0.028180 -10.908917 3.375104 -0.325411 -0.187275 -0.090634 -0.000000 0.000000 0.000000 0.000000 0.000000 0.000000 0.000000 8.093171 0.002484 2.272836 33.595895 28.788515 25.815095 0.832215 73.776347 0.030142 9.041180 11.627145 0.961031 -0.108095 -0.337316 0.000000 0.000000 0.000000 0.000000 0.000000 0.000000 0.000000 
-17.722859 16.383731 -0.402732 6.356038 81.505964 30.865792 -10.507335 0.032826 2.293222 -2.690297 0.563528 -2.217983 -4.617974 0.506495 1.689970 6.214135 -3.534123 -6.058195 -2.334865 -0.183290 0.183079 0.000000 0.000000 0.000000 -8.432253 10.828881 2.608878 -46.081555 11.078131 13.501226 -5.266461 -22.543862 -0.027531 -11.012116 3.357479 -0.326880 -0.181550 -0.088787 -0.000000 0.000000 0.000000 0.000000 0.000000 0.000000 0.000000 8.166634 -0.295514 2.229964 34.106156 28.088419 26.335851 0.856354 73.354366 0.029360 9.021154 11.662510 0.960641 -0.104599 -0.328689 0.000000 0.000000 0.000000 0.000000 0.000000 0.000000 0.000000 
-17.505124 16.450174 -0.431671 7.158852 81.827284 31.472532 -10.273618 -0.119432 2.398621 -2.634895 0.404651 -2.188005 -4.641997 0.349571 1.713792 6.266084 -3.723400 -6.033992 -2.346404 -0.184233 0.192065 0.000000 0.000000 0.000000 -8.588134 10.554571 2.635795 -46.711434 10.164495 14.290133 -5.186490 -23.525423 -0.026666 -11.109522 3.302223 -0.324442 -0.175616 -0.086583 -0.000000 0.000000 0.000000 0.000000 0.000000 0.000000 0.000000 8.251820 -0.595747 2.184256 34.703706 27.343161 26.739272 0.888459 72.821710 0.028679 9.011096 11.678326 0.959756 -0.100728 -0.319505 0.000000 0.000000 0.000000 0.000000 0.000000 0.000000 0.000000 
-17.288458 16.521521 -0.460800 7.828227 82.131286 31.976773 -9.998977 -0.262608 2.470719 -2.574194 0.253169 -2.166153 -4.676879 0.199547 1.733052 6.339516 -3.919723 -6.015351 -2.358953 -0.185204 0.200093 0.000000 0.000000 0.000000 -8.730667 10.276817 2.663831 -47.310237 9.199552 15.073020 -5.102628 -24.595521 -0.025557 -11.195994 3.207183 -0.317800 -0.169533 -0.083877 -0.000000 0.000000 0.000000 0.000000 0.000000 0.000000 0.000000 8.355629 -0.891455 2.137154 35.377019 26.553176 27.010469 0.928405 72.190320 0.028121 9.015588 11.670051 0.958375 -0.096602 -0.309908 0.000000 0.000000 0.000000 0.000000 0.000000 0.000000 0.000000 
-17.073104 16.597334 -0.489895 8.288189 82.398604 32.301010 -9.690715 -0.391888 2.510853 -2.509983 0.113949 -2.152642 -4.723431 0.061287 1.746280 6.435682 -4.116718 -6.001735 -2.373281 -0.186267 0.207165 0.000000 0.000000 0.000000 -8.855079 9.996134 2.692609 -47.878030 8.193431 15.834629 -5.016069 -25.737718 -0.024208 -11.269885 3.073520 -0.306653 -0.163356 -0.080606 -0.000000 0.000000 0.000000 0.000000 0.000000 0.000000 0.000000 8.482546 -1.173073 2.090643 36.112942 25.718571 27.139382 0.975930 71.474561 0.027698 9.039993 11.635133 0.956897 -0.092353 -0.300051 -0.000000 0.000000 0.000000 0.000000 0.000000 0.000000 0.000000 
-16.858984 16.676907 -0.518843 8.462260 82.613791 32.363829 -9.354220 -0.504042 2.522909 -2.443389 -0.009784 -2.146860 -4.781834 -0.061926 1.752822 6.553975 -4.308618 -5.992182 -2.390082 -0.187484 0.213398 0.000000 0.000000 0.000000 -8.955963 9.714599 2.721683 -48.416939 7.156456 16.567605 -4.927677 -26.938582 -0.022645 -11.331831 2.905969 -0.291703 -0.157125 -0.076731 -0.000000 0.000000 0.000000 0.000000 0.000000 0.000000 0.000000 8.635617 -1.433104 2.046248 36.895207 24.845038 27.123737 1.030392 70.689410 0.027403 9.085910 11.570853 0.955322 -0.088086 -0.290056 -0.000000 0.000000 0.000000 0.000000 0.000000 0.000000 0.000000 
-16.646130 16.759314 -0.547607 8.282165 82.766231 32.089630 -8.992148 -0.597678 2.513104 -2.374757 -0.116731 -2.147504 -4.851715 -0.168683 1.752585 6.691880 -4.490688 -5.985424 -2.409906 -0.188907 0.219006 0.000000 0.000000 0.000000 -9.028930 9.434845 2.750466 -48.929284 6.101722 17.270152 -4.837865 -28.190396 -0.020899 -11.384345 2.710325 -0.273551 -0.150856 -0.072254 -0.000000 0.000000 0.000000 0.000000 0.000000 0.000000 0.000000 8.815814 -1.666591 2.005194 37.706310 23.943778 26.968875 1.090974 69.848864 0.027215 9.152366 11.479174 0.953548 -0.083876 -0.280061 -0.000000 0.000000 0.000000 0.000000 0.000000 0.000000 0.000000 
-16.434567 16.843451 -0.576245 7.700136 82.851229 31.422511 -8.604217 -0.673286 2.489081 -2.303676 -0.207575 -2.152752 -4.932179 -0.259517 1.746155 6.845539 -4.659865 -5.980373 -2.433113 -0.190567 0.224168 0.000000 0.000000 0.000000 -9.070436 9.160651 2.778402 -49.416909 5.041330 17.946185 -4.746563 -29.490493 -0.019008 -11.430716 2.494370 -0.252898 -0.144544 -0.067191 -0.000000 0.000000 0.000000 0.000000 0.000000 0.000000 0.000000 9.022430 -1.871631 1.968269 38.528391 23.029443 26.686598 1.156659 68.965509 0.027101 9.234741 11.362690 0.951275 -0.079744 -0.270170 -0.000000 0.000000 0.000000 0.000000 0.000000 0.000000 0.000000 
